HIERARCHY
ROOT HipCenter
{
    OFFSET 0.0 0.0 -0.0
    CHANNELS 6 Xposition Yposition Zposition Zrotation Xrotation Yrotation
    JOINT Spine
    {
        OFFSET 0.0 12.239690780639648 0.0
        CHANNELS 3 Zrotation Xrotation Yrotation
        JOINT ShoulderCenter
        {
            OFFSET 0.0 34.94607925415039 0.0
            CHANNELS 3 Zrotation Xrotation Yrotation
            JOINT LeftShoulder
            {
                OFFSET 18.58734893798828 0.0 0.0
                CHANNELS 3 Zrotation Xrotation Yrotation
                JOINT LeftElbow
                {
                    OFFSET 29.715782165527344 0.0 0.0
                    CHANNELS 3 Zrotation Xrotation Yrotation
                    JOINT LeftWrist
                    {
                        OFFSET 30.15786361694336 0.0 0.0
                        CHANNELS 3 Zrotation Xrotation Yrotation
                        JOINT LeftHand
                        {
                            OFFSET 4.084176063537598 0.0 0.0
                            CHANNELS 3 Zrotation Xrotation Yrotation
                            End Site
                            {
                                OFFSET 1.633670449256897 0.0 0.0
                            }
                        }
                    }
                }
            }
            JOINT RightShoulder
            {
                OFFSET -18.58734893798828 0.0 0.0
                CHANNELS 3 Zrotation Xrotation Yrotation
                JOINT RightElbow
                {
                    OFFSET -29.715782165527344 0.0 0.0
                    CHANNELS 3 Zrotation Xrotation Yrotation
                    JOINT RightWrist
                    {
                        OFFSET -30.15786361694336 0.0 0.0
                        CHANNELS 3 Zrotation Xrotation Yrotation
                        JOINT RightHand
                        {
                            OFFSET -4.084176063537598 0.0 0.0
                            CHANNELS 3 Zrotation Xrotation Yrotation
                            End Site
                            {
                                OFFSET -1.633670449256897 0.0 0.0
                            }
                        }
                    }
                }
            }
            End Site
            {
                OFFSET 0.0 13.978432655334473 0.0
            }
        }
    }
    JOINT LeftHip
    {
        OFFSET 15.67631721496582 0.0 0.0
        CHANNELS 3 Zrotation Xrotation Yrotation
        JOINT LeftKnee
        {
            OFFSET 0.0 -41.609214782714844 0.0
            CHANNELS 3 Zrotation Xrotation Yrotation
            JOINT LeftAnkle
            {
                OFFSET 0.0 -41.74919891357422 0.0
                CHANNELS 3 Zrotation Xrotation Yrotation
                JOINT LeftFoot
                {
                    OFFSET 0.0 -9.874725341796875 0.0
                    CHANNELS 3 Zrotation Xrotation Yrotation
                    End Site
                    {
                        OFFSET 0.0 0.0 3.949889659881592
                    }
                }
            }
        }
    }
    JOINT RightHip
    {
        OFFSET -15.67631721496582 0.0 0.0
        CHANNELS 3 Zrotation Xrotation Yrotation
        JOINT RightKnee
        {
            OFFSET 0.0 -41.609214782714844 0.0
            CHANNELS 3 Zrotation Xrotation Yrotation
            JOINT RightAnkle
            {
                OFFSET 0.0 -41.74919891357422 0.0
                CHANNELS 3 Zrotation Xrotation Yrotation
                JOINT RightFoot
                {
                    OFFSET 0.0 -9.874725341796875 0.0
                    CHANNELS 3 Zrotation Xrotation Yrotation
                    End Site
                    {
                        OFFSET 0.0 0.0 3.949889659881592
                    }
                }
            }
        }
    }
}
MOTION
Frames: 5
Frame Time: 0.03333333333333333
40.0 -1.0 -62.099998474121094 -1.8456616398531352e-08 2.3278150257289965 -21.390724417535438 3.1274536260171826 -7.4817380487113185 0.6457284224751553 -1.255734239717512e-07 2.57767673791013e-07 1.2679232108933232 91.84440889156943 -11.810027534710427 172.52772069959033 -4.543039281324684e-06 -1.8496690365710604e-07 33.59192275630058 179.99999977536848 -15.799037560565539 -119.6254935177196 6.3611093629270335e-15 0.0 0.0 -97.86410782446985 -6.3238539099872755 -164.79426973176265 -3.526313499902569e-07 -2.8862215843801763e-06 -33.140576347550144 -1.5528702132793193e-06 -38.540101964567036 -24.236928497476665 -5.9635400277440935e-15 -6.3611093629270335e-15 2.385416011097637e-15 -0.7366873773535761 -6.740377672585215 -21.58976970284602 -1.8019720470553566 24.037108841732064 -20.480274233949938 96.16485918069615 -35.71069549813919 149.09610354084205 0.0 0.0 6.3611093629270335e-15 1.5892060436790263 -3.669655565405774 21.98371110974794 -0.8654998050370256 11.407194454739365 8.958967434313921 -61.83311841534312 -51.42025156458372 -102.07607393344179 -2.385416011097637e-15 6.311413196029165e-15 -2.484808344893372e-15
39.89999771118164 -0.8999999761581421 -62.19999694824219 2.258441301852983e-08 2.8155495687556273 -21.143747767463136 3.42228736886471 -7.8741939455358505 0.6609355066114481 -2.6052247086844852e-08 -1.2751556280242606e-07 0.738423233758182 91.6992104646734 -12.048947136343907 172.32450765696638 -1.5352131399527785e-06 -9.967175967362057e-07 34.60154899041714 -179.99999767100272 -15.33463076513289 -118.83880864033466 6.3611093629270335e-15 -6.3611093629270335e-15 -3.1805546814635164e-15 -98.04213462964911 -5.6581117873121825 -165.0422253084677 3.6509644876924815e-06 -2.7707280025427437e-06 -33.25060483036525 -1.8272534769927816e-06 -32.85482263197472 -23.620496311920274 -6.6592863643142385e-15 -6.93121223365689e-32 1.1927080055488188e-15 -0.4130748692029124 -7.2702134649132395 -21.46373739343014 -1.9422768755002244 23.92151477753501 -20.2954747705053 95.95246065688558 -35.6934347600601 148.83920185519125 0.0 0.0 -3.1805546814635164e-15 1.6494132058676414 -3.8720606765416217 22.412998598989788 -0.5992742743148436 11.001640106184253 8.723401060928715 -62.458368212159286 -50.47554576846564 -103.40570218897913 4.572047354603805e-15 -6.3611093629270335e-15 2.286023677301903e-15
39.89999771118164 -0.8999999761581421 -62.19999694824219 -5.41132604609203e-08 2.7926954190464794 -21.14322540262843 3.5152953473839523 -7.655152393867835 0.6562431642663786 1.0997624065160013e-07 -5.942934458180673e-07 0.941900090544712 91.7877608385903 -12.356366990147535 172.46124919547097 2.1889693827613855e-06 4.229585153202678e-06 35.26306147116262 179.99999311680222 -13.85878993407845 -117.27194750630056 0.0 0.0 0.0 -98.1566504766416 -6.286299232670821 -165.22624351561154 2.731203869047727e-06 -1.0530177205773592e-07 -33.5372147987001 2.476871962412839e-06 -27.60709036007487 -24.961127420542343 4.770832022195275e-15 6.3611093629270335e-15 -7.951386703658796e-16 -0.29325961369947423 -7.200233124651801 -21.537816644673942 -2.085215093290448 23.87176967111107 -20.231242701416292 95.99870248997834 -35.65720995873234 148.8854425720221 -3.1805546814635168e-15 1.5902773407317584e-15 3.1805546814635168e-15 1.541658774196051 -3.593975599516819 22.6219611547143 -0.5696126928159582 10.437315921799026 8.276730537579148 -62.17282820286508 -50.85862250885956 -103.03528938207906 -1.987846675914698e-16 6.361109362927033e-15 2.9817700138720465e-16
39.89999771118164 -0.800000011920929 -62.099998474121094 0.4696199544431037 2.3467958161909674 -21.07196244606644 2.9030259142533774 -7.413679187416318 0.6675339657645625 -1.6580967260297e-07 -3.903343948990021e-07 0.8236847639106812 91.893174608144 -12.680509979328324 172.39487167927183 4.0988411659087196e-06 -1.4336785247156437e-06 35.57902262444313 179.99999626525536 -13.526660858962476 -117.03731451474623 0.0 7.951386703658791e-16 0.0 -98.31955954883075 -6.696475606214741 -165.74568720640423 2.3411254556765566e-07 -5.0657680597368385e-08 -33.11014427869182 -1.8180650333118008e-06 -16.873777295290967 -24.690675128661493 7.156248033292914e-15 6.3611093629270335e-15 1.590277340731758e-15 -0.8534204763210471 -7.079119173194621 -21.0963038210059 -2.0469917913944977 24.086565613895203 -20.752684154902305 96.16080337554021 -35.659428750815785 149.37667764137632 -3.1805546814635176e-15 -6.361109362927035e-15 3.1805546814635176e-15 0.9658893915015958 -3.037131469464748 22.27364205278333 -0.7655202770594209 9.887847262373644 7.803279778641069 -61.22061451869912 -51.05362045680468 -101.68311128927908 1.3914926731402886e-15 -6.3611093629270335e-15 -1.1430118386509513e-15
39.89999771118164 -0.800000011920929 -62.099998474121094 0.9391766403422201 2.346559388737577 -20.84992010459698 2.4934828742054678 -7.745390908240822 0.7031525739675965 5.468764743790795e-08 1.7680336149181984e-07 0.5849280140373695 91.78213705321362 -12.541266435932574 172.48563903669537 -8.966410973396435e-08 4.581226452019271e-06 35.099536967433075 179.99999801327343 -13.682676844407471 -117.2718984764098 0.0 0.0 -6.361109362927032e-15 -98.47562896808543 -7.742349736559553 -165.69775887037315 -5.418270045340447e-06 -1.4213092526843172e-06 -33.15527271228637 -4.186402455125994e-06 -10.432583772975088 -26.438759711277275 -3.1805546814635168e-15 -6.3611093629270335e-15 1.5902773407317582e-15 -1.273622541740926 -7.369144655861256 -21.23573207884944 -2.2070649086814025 24.102408652532585 -20.71863310509178 95.27771830655091 -35.32650204555031 148.74642593237246 -3.1805546814635183e-15 -6.361109362927035e-15 -9.541664044390553e-15 0.4155121832789963 -2.947977678077402 22.700949977857135 -0.6612162999168539 9.483593358845193 7.4607059960412885 -60.83464541427396 -51.13307844873307 -101.10928321696069 1.7890620083232284e-15 -4.969616689786743e-17 9.93923337957349e-16
